<?xml version="1.0" encoding="UTF-8" standalone="no"?>
<!DOCTYPE svg PUBLIC "-//W3C//DTD SVG 1.1//EN"
 "http://www.w3.org/Graphics/SVG/1.1/DTD/svg11.dtd">
<!-- Generated by graphviz version 7.0.4 (20221203.1631)
 -->
<!-- Pages: 1 -->
<svg width="863pt" height="3055pt"
 viewBox="0.00 0.00 863.42 3055.18" xmlns="http://www.w3.org/2000/svg" xmlns:xlink="http://www.w3.org/1999/xlink">
<g id="graph0" class="graph" transform="scale(1 1) rotate(0) translate(4 3051.18)">
<polygon fill="white" stroke="none" points="-4,4 -4,-3051.18 859.42,-3051.18 859.42,4 -4,4"/>
<!-- INSERIMENTO -->
<g id="node1" class="node">
<title>INSERIMENTO</title>
<ellipse fill="none" stroke="black" stroke-width="2" cx="672.57" cy="-2958.32" rx="84.71" ry="84.71"/>
<ellipse fill="none" stroke="black" stroke-width="2" cx="672.57" cy="-2958.32" rx="88.71" ry="88.71"/>
<text text-anchor="middle" x="672.57" y="-2954.52" font-family="Times New Roman,serif" font-size="16.00">INSERIMENTO</text>
</g>
<!-- INSERIMENTO&#45;&gt;INSERIMENTO -->
<g id="edge1" class="edge">
<title>INSERIMENTO&#45;&gt;INSERIMENTO</title>
<path fill="none" stroke="#575757" d="M760.19,-2977.48C771.76,-2974.21 779.42,-2967.83 779.42,-2958.32 779.42,-2950.6 774.36,-2944.94 766.26,-2941.33"/>
<polygon fill="#575757" stroke="#575757" points="766.91,-2939.71 761.62,-2939.68 765.74,-2943 766.91,-2939.71"/>
<text text-anchor="middle" x="817.42" y="-2954.52" font-family="Times New Roman,serif" font-size="16.00" fill="#575757"> 0&#45;&#45;&#45;&#45;&#45;/0000</text>
</g>
<!-- T1_CODICE1 -->
<g id="node2" class="node">
<title>T1_CODICE1</title>
<ellipse fill="none" stroke="black" stroke-width="2" cx="568.57" cy="-2739.1" rx="76.24" ry="76.24"/>
<text text-anchor="middle" x="568.57" y="-2735.3" font-family="Times New Roman,serif" font-size="16.00">T1_CODICE1</text>
</g>
<!-- INSERIMENTO&#45;&gt;T1_CODICE1 -->
<g id="edge2" class="edge">
<title>INSERIMENTO&#45;&gt;T1_CODICE1</title>
<path fill="none" stroke="#575757" d="M609.4,-2894.78C598.91,-2881.41 589.28,-2866.7 582.57,-2851.47 578.54,-2842.31 575.56,-2832.35 573.38,-2822.27"/>
<polygon fill="#575757" stroke="#575757" points="575.11,-2822.03 572.41,-2817.47 571.68,-2822.72 575.11,-2822.03"/>
<text text-anchor="middle" x="620.57" y="-2838.67" font-family="Times New Roman,serif" font-size="16.00" fill="#575757"> 1&#45;&#45;&#45;&#45;&#45;/0000</text>
</g>
<!-- T1_CODICE1_ERRORE -->
<g id="node3" class="node">
<title>T1_CODICE1_ERRORE</title>
<ellipse fill="none" stroke="black" stroke-width="2" cx="347.57" cy="-2482.16" rx="126.64" ry="126.64"/>
<text text-anchor="middle" x="347.57" y="-2478.36" font-family="Times New Roman,serif" font-size="16.00">T1_CODICE1_ERRORE</text>
</g>
<!-- T1_CODICE1&#45;&gt;T1_CODICE1_ERRORE -->
<g id="edge3" class="edge">
<title>T1_CODICE1&#45;&gt;T1_CODICE1_ERRORE</title>
<path fill="none" stroke="#575757" d="M518.7,-2680.57C493.95,-2652.02 463.31,-2616.68 434.84,-2583.83"/>
<polygon fill="#575757" stroke="#575757" points="436.24,-2582.78 431.64,-2580.15 433.6,-2585.07 436.24,-2582.78"/>
<text text-anchor="middle" x="521.57" y="-2631.93" font-family="Times New Roman,serif" font-size="16.00" fill="#575757"> &#45;1&#45;&#45;&#45;&#45;/0000</text>
</g>
<!-- T1_CODICE2 -->
<g id="node4" class="node">
<title>T1_CODICE2</title>
<ellipse fill="none" stroke="black" stroke-width="2" cx="568.57" cy="-2482.16" rx="76.24" ry="76.24"/>
<text text-anchor="middle" x="568.57" y="-2478.36" font-family="Times New Roman,serif" font-size="16.00">T1_CODICE2</text>
</g>
<!-- T1_CODICE1&#45;&gt;T1_CODICE2 -->
<g id="edge4" class="edge">
<title>T1_CODICE1&#45;&gt;T1_CODICE2</title>
<path fill="none" stroke="#575757" d="M568.57,-2661.96C568.57,-2631.56 568.57,-2596.48 568.57,-2565.5"/>
<polygon fill="#575757" stroke="#575757" points="570.32,-2565.87 568.57,-2560.87 566.82,-2565.87 570.32,-2565.87"/>
<text text-anchor="middle" x="611.07" y="-2631.93" font-family="Times New Roman,serif" font-size="16.00" fill="#575757"> &#45;0101&#45;/0000</text>
</g>
<!-- T1_CODICE2_ERRORE -->
<g id="node5" class="node">
<title>T1_CODICE2_ERRORE</title>
<ellipse fill="none" stroke="black" stroke-width="2" cx="347.57" cy="-2175.02" rx="126.64" ry="126.64"/>
<text text-anchor="middle" x="347.57" y="-2171.22" font-family="Times New Roman,serif" font-size="16.00">T1_CODICE2_ERRORE</text>
</g>
<!-- T1_CODICE1_ERRORE&#45;&gt;T1_CODICE2_ERRORE -->
<g id="edge5" class="edge">
<title>T1_CODICE1_ERRORE&#45;&gt;T1_CODICE2_ERRORE</title>
<path fill="none" stroke="#575757" d="M347.57,-2354.85C347.57,-2339.5 347.57,-2323.79 347.57,-2308.37"/>
<polygon fill="#575757" stroke="#575757" points="349.32,-2308.75 347.57,-2303.75 345.82,-2308.75 349.32,-2308.75"/>
<text text-anchor="middle" x="384.07" y="-2324.79" font-family="Times New Roman,serif" font-size="16.00" fill="#575757"> &#45;&#45;&#45;&#45;&#45;&#45;/0000</text>
</g>
<!-- T1_CODICE2&#45;&gt;T1_CODICE2_ERRORE -->
<g id="edge6" class="edge">
<title>T1_CODICE2&#45;&gt;T1_CODICE2_ERRORE</title>
<path fill="none" stroke="#575757" d="M526.42,-2417.47C512.95,-2397.51 497.83,-2375.49 483.57,-2355.59 466.14,-2331.25 446.97,-2305.41 428.66,-2281.14"/>
<polygon fill="#575757" stroke="#575757" points="430.09,-2280.13 425.68,-2277.2 427.3,-2282.24 430.09,-2280.13"/>
<text text-anchor="middle" x="506.57" y="-2324.79" font-family="Times New Roman,serif" font-size="16.00" fill="#575757"> &#45;1&#45;&#45;&#45;&#45;/0000</text>
</g>
<!-- T1_CODICE3 -->
<g id="node6" class="node">
<title>T1_CODICE3</title>
<ellipse fill="none" stroke="black" stroke-width="2" cx="568.57" cy="-2175.02" rx="76.24" ry="76.24"/>
<text text-anchor="middle" x="568.57" y="-2171.22" font-family="Times New Roman,serif" font-size="16.00">T1_CODICE3</text>
</g>
<!-- T1_CODICE2&#45;&gt;T1_CODICE3 -->
<g id="edge7" class="edge">
<title>T1_CODICE2&#45;&gt;T1_CODICE3</title>
<path fill="none" stroke="#575757" d="M568.57,-2404.95C568.57,-2360.35 568.57,-2304.04 568.57,-2258.42"/>
<polygon fill="#575757" stroke="#575757" points="570.32,-2258.57 568.57,-2253.57 566.82,-2258.57 570.32,-2258.57"/>
<text text-anchor="middle" x="611.07" y="-2324.79" font-family="Times New Roman,serif" font-size="16.00" fill="#575757"> &#45;0101&#45;/0000</text>
</g>
<!-- T2_CODICE1 -->
<g id="node7" class="node">
<title>T2_CODICE1</title>
<ellipse fill="none" stroke="black" stroke-width="2" cx="392.57" cy="-1918.08" rx="76.24" ry="76.24"/>
<text text-anchor="middle" x="392.57" y="-1914.28" font-family="Times New Roman,serif" font-size="16.00">T2_CODICE1</text>
</g>
<!-- T1_CODICE2_ERRORE&#45;&gt;T2_CODICE1 -->
<g id="edge8" class="edge">
<title>T1_CODICE2_ERRORE&#45;&gt;T2_CODICE1</title>
<path fill="none" stroke="#575757" d="M369.02,-2049.62C371.22,-2037.06 373.43,-2024.5 375.57,-2012.45 376.29,-2008.41 377.03,-2004.28 377.77,-2000.11"/>
<polygon fill="#575757" stroke="#575757" points="379.45,-2000.7 378.61,-1995.47 376,-2000.08 379.45,-2000.7"/>
<text text-anchor="middle" x="412.07" y="-2017.65" font-family="Times New Roman,serif" font-size="16.00" fill="#575757"> &#45;&#45;&#45;&#45;&#45;&#45;/1000</text>
</g>
<!-- T1_CODICE3&#45;&gt;T2_CODICE1 -->
<g id="edge9" class="edge">
<title>T1_CODICE3&#45;&gt;T2_CODICE1</title>
<path fill="none" stroke="#575757" d="M525.99,-2110.63C512.5,-2090.68 497.48,-2068.6 483.57,-2048.45 469.61,-2028.22 454.29,-2006.32 440.27,-1986.4"/>
<polygon fill="#575757" stroke="#575757" points="441.72,-1985.42 437.41,-1982.34 438.86,-1987.44 441.72,-1985.42"/>
<text text-anchor="middle" x="506.57" y="-2017.65" font-family="Times New Roman,serif" font-size="16.00" fill="#575757"> &#45;1&#45;&#45;&#45;&#45;/1000</text>
</g>
<!-- RICHIESTA -->
<g id="node8" class="node">
<title>RICHIESTA</title>
<ellipse fill="none" stroke="black" stroke-width="2" cx="572.57" cy="-285.22" rx="67.35" ry="67.35"/>
<text text-anchor="middle" x="572.57" y="-281.42" font-family="Times New Roman,serif" font-size="16.00">RICHIESTA</text>
</g>
<!-- T1_CODICE3&#45;&gt;RICHIESTA -->
<g id="edge10" class="edge">
<title>T1_CODICE3&#45;&gt;RICHIESTA</title>
<path fill="none" stroke="#575757" d="M570.39,-2097.89C571.45,-2047.22 572.57,-1979.17 572.57,-1919.08 572.57,-1919.08 572.57,-1919.08 572.57,-531.97 572.57,-474.2 572.57,-408.78 572.57,-359.97"/>
<polygon fill="#575757" stroke="#575757" points="574.32,-360.01 572.57,-355.01 570.82,-360.01 574.32,-360.01"/>
<text text-anchor="middle" x="615.07" y="-1196.62" font-family="Times New Roman,serif" font-size="16.00" fill="#575757"> &#45;0000&#45;/0001</text>
</g>
<!-- T2_CODICE1_ERRORE -->
<g id="node9" class="node">
<title>T2_CODICE1_ERRORE</title>
<ellipse fill="none" stroke="black" stroke-width="2" cx="238.57" cy="-1661.14" rx="126.64" ry="126.64"/>
<text text-anchor="middle" x="238.57" y="-1657.34" font-family="Times New Roman,serif" font-size="16.00">T2_CODICE1_ERRORE</text>
</g>
<!-- T2_CODICE1&#45;&gt;T2_CODICE1_ERRORE -->
<g id="edge11" class="edge">
<title>T2_CODICE1&#45;&gt;T2_CODICE1_ERRORE</title>
<path fill="none" stroke="#575757" d="M353.11,-1851.76C339.14,-1828.62 322.97,-1801.86 307.28,-1775.87"/>
<polygon fill="#575757" stroke="#575757" points="308.8,-1775.01 304.72,-1771.64 305.8,-1776.82 308.8,-1775.01"/>
<text text-anchor="middle" x="371.57" y="-1810.91" font-family="Times New Roman,serif" font-size="16.00" fill="#575757"> &#45;1&#45;&#45;&#45;&#45;/0000</text>
</g>
<!-- T2_CODICE2 -->
<g id="node10" class="node">
<title>T2_CODICE2</title>
<ellipse fill="none" stroke="black" stroke-width="2" cx="459.57" cy="-1661.14" rx="76.24" ry="76.24"/>
<text text-anchor="middle" x="459.57" y="-1657.34" font-family="Times New Roman,serif" font-size="16.00">T2_CODICE2</text>
</g>
<!-- T2_CODICE1&#45;&gt;T2_CODICE2 -->
<g id="edge12" class="edge">
<title>T2_CODICE1&#45;&gt;T2_CODICE2</title>
<path fill="none" stroke="#575757" d="M413.17,-1843.73C415.02,-1836.97 416.84,-1830.22 418.57,-1823.71 425.63,-1797.17 433.09,-1768.11 439.69,-1742.04"/>
<polygon fill="#575757" stroke="#575757" points="441.36,-1742.57 440.88,-1737.3 437.96,-1741.71 441.36,-1742.57"/>
<text text-anchor="middle" x="465.07" y="-1810.91" font-family="Times New Roman,serif" font-size="16.00" fill="#575757"> &#45;0101&#45;/0000</text>
</g>
<!-- RICHIESTA&#45;&gt;INSERIMENTO -->
<g id="edge28" class="edge">
<title>RICHIESTA&#45;&gt;INSERIMENTO</title>
<path fill="none" stroke="#575757" d="M609.81,-342.19C638.24,-390.38 672.57,-462.88 672.57,-531.97 672.57,-2740.1 672.57,-2740.1 672.57,-2740.1 672.57,-2780.28 672.57,-2824.65 672.57,-2862.75"/>
<polygon fill="#575757" stroke="#575757" points="670.82,-2862.3 672.57,-2867.3 674.32,-2862.3 670.82,-2862.3"/>
<text text-anchor="middle" x="710.57" y="-1657.34" font-family="Times New Roman,serif" font-size="16.00" fill="#575757"> &#45;&#45;&#45;&#45;&#45;0/0000</text>
</g>
<!-- EROGAZIONE -->
<g id="node19" class="node">
<title>EROGAZIONE</title>
<ellipse fill="none" stroke="black" stroke-width="2" cx="674.57" cy="-82.02" rx="82.05" ry="82.05"/>
<text text-anchor="middle" x="674.57" y="-78.22" font-family="Times New Roman,serif" font-size="16.00">EROGAZIONE</text>
</g>
<!-- RICHIESTA&#45;&gt;EROGAZIONE -->
<g id="edge29" class="edge">
<title>RICHIESTA&#45;&gt;EROGAZIONE</title>
<path fill="none" stroke="#575757" d="M603.04,-224.13C613.01,-204.47 624.23,-182.32 634.78,-161.51"/>
<polygon fill="#575757" stroke="#575757" points="636.21,-162.56 636.91,-157.31 633.09,-160.98 636.21,-162.56"/>
<text text-anchor="middle" x="661.57" y="-187.25" font-family="Times New Roman,serif" font-size="16.00" fill="#575757"> &#45;&#45;&#45;&#45;&#45;1/0100</text>
</g>
<!-- T2_CODICE2_ERRORE -->
<g id="node11" class="node">
<title>T2_CODICE2_ERRORE</title>
<ellipse fill="none" stroke="black" stroke-width="2" cx="238.57" cy="-1353.99" rx="126.64" ry="126.64"/>
<text text-anchor="middle" x="238.57" y="-1350.19" font-family="Times New Roman,serif" font-size="16.00">T2_CODICE2_ERRORE</text>
</g>
<!-- T2_CODICE1_ERRORE&#45;&gt;T2_CODICE2_ERRORE -->
<g id="edge13" class="edge">
<title>T2_CODICE1_ERRORE&#45;&gt;T2_CODICE2_ERRORE</title>
<path fill="none" stroke="#575757" d="M238.57,-1533.82C238.57,-1518.48 238.57,-1502.77 238.57,-1487.34"/>
<polygon fill="#575757" stroke="#575757" points="240.32,-1487.73 238.57,-1482.73 236.82,-1487.73 240.32,-1487.73"/>
<text text-anchor="middle" x="275.07" y="-1503.77" font-family="Times New Roman,serif" font-size="16.00" fill="#575757"> &#45;&#45;&#45;&#45;&#45;&#45;/0000</text>
</g>
<!-- T2_CODICE2&#45;&gt;T2_CODICE2_ERRORE -->
<g id="edge14" class="edge">
<title>T2_CODICE2&#45;&gt;T2_CODICE2_ERRORE</title>
<path fill="none" stroke="#575757" d="M417.42,-1596.45C403.95,-1576.48 388.83,-1554.47 374.57,-1534.57 357.14,-1510.23 337.97,-1484.39 319.66,-1460.12"/>
<polygon fill="#575757" stroke="#575757" points="321.09,-1459.11 316.68,-1456.17 318.3,-1461.22 321.09,-1459.11"/>
<text text-anchor="middle" x="397.57" y="-1503.77" font-family="Times New Roman,serif" font-size="16.00" fill="#575757"> &#45;1&#45;&#45;&#45;&#45;/0000</text>
</g>
<!-- T2_CODICE3 -->
<g id="node12" class="node">
<title>T2_CODICE3</title>
<ellipse fill="none" stroke="black" stroke-width="2" cx="459.57" cy="-1353.99" rx="76.24" ry="76.24"/>
<text text-anchor="middle" x="459.57" y="-1350.19" font-family="Times New Roman,serif" font-size="16.00">T2_CODICE3</text>
</g>
<!-- T2_CODICE2&#45;&gt;T2_CODICE3 -->
<g id="edge15" class="edge">
<title>T2_CODICE2&#45;&gt;T2_CODICE3</title>
<path fill="none" stroke="#575757" d="M459.57,-1583.93C459.57,-1539.33 459.57,-1483.01 459.57,-1437.39"/>
<polygon fill="#575757" stroke="#575757" points="461.32,-1437.54 459.57,-1432.54 457.82,-1437.54 461.32,-1437.54"/>
<text text-anchor="middle" x="502.07" y="-1503.77" font-family="Times New Roman,serif" font-size="16.00" fill="#575757"> &#45;0101&#45;/0000</text>
</g>
<!-- T3_CODICE1 -->
<g id="node13" class="node">
<title>T3_CODICE1</title>
<ellipse fill="none" stroke="black" stroke-width="2" cx="287.57" cy="-1097.06" rx="76.24" ry="76.24"/>
<text text-anchor="middle" x="287.57" y="-1093.26" font-family="Times New Roman,serif" font-size="16.00">T3_CODICE1</text>
</g>
<!-- T2_CODICE2_ERRORE&#45;&gt;T3_CODICE1 -->
<g id="edge16" class="edge">
<title>T2_CODICE2_ERRORE&#45;&gt;T3_CODICE1</title>
<path fill="none" stroke="#575757" d="M257.64,-1227.99C259.84,-1215.61 262.17,-1203.26 264.57,-1191.42 265.46,-1187.04 266.42,-1182.54 267.42,-1178.02"/>
<polygon fill="#575757" stroke="#575757" points="269.09,-1178.57 268.48,-1173.31 265.67,-1177.8 269.09,-1178.57"/>
<text text-anchor="middle" x="301.07" y="-1196.62" font-family="Times New Roman,serif" font-size="16.00" fill="#575757"> &#45;&#45;&#45;&#45;&#45;&#45;/1000</text>
</g>
<!-- T2_CODICE3&#45;&gt;RICHIESTA -->
<g id="edge18" class="edge">
<title>T2_CODICE3&#45;&gt;RICHIESTA</title>
<path fill="none" stroke="#575757" d="M459.57,-1276.86C459.57,-1226.19 459.57,-1158.14 459.57,-1098.06 459.57,-1098.06 459.57,-1098.06 459.57,-531.97 459.57,-463.1 496.66,-392.49 528.34,-344.73"/>
<polygon fill="#575757" stroke="#575757" points="529.6,-345.99 530.93,-340.86 526.7,-344.04 529.6,-345.99"/>
<text text-anchor="middle" x="502.07" y="-836.32" font-family="Times New Roman,serif" font-size="16.00" fill="#575757"> &#45;0000&#45;/0001</text>
</g>
<!-- T2_CODICE3&#45;&gt;T3_CODICE1 -->
<g id="edge17" class="edge">
<title>T2_CODICE3&#45;&gt;T3_CODICE1</title>
<path fill="none" stroke="#575757" d="M417.06,-1289.98C391.73,-1252.44 359.58,-1204.78 333.65,-1166.35"/>
<polygon fill="#575757" stroke="#575757" points="335.29,-1165.65 331.04,-1162.49 332.39,-1167.61 335.29,-1165.65"/>
<text text-anchor="middle" x="395.57" y="-1196.62" font-family="Times New Roman,serif" font-size="16.00" fill="#575757"> &#45;1&#45;&#45;&#45;&#45;/1000</text>
</g>
<!-- T3_CODICE1_ERRORE -->
<g id="node14" class="node">
<title>T3_CODICE1_ERRORE</title>
<ellipse fill="none" stroke="black" stroke-width="2" cx="126.57" cy="-840.12" rx="126.64" ry="126.64"/>
<text text-anchor="middle" x="126.57" y="-836.32" font-family="Times New Roman,serif" font-size="16.00">T3_CODICE1_ERRORE</text>
</g>
<!-- T3_CODICE1&#45;&gt;T3_CODICE1_ERRORE -->
<g id="edge19" class="edge">
<title>T3_CODICE1&#45;&gt;T3_CODICE1_ERRORE</title>
<path fill="none" stroke="#575757" d="M246.95,-1031.72C231.92,-1007.94 214.42,-980.23 197.5,-953.43"/>
<polygon fill="#575757" stroke="#575757" points="199.08,-952.65 194.93,-949.36 196.12,-954.52 199.08,-952.65"/>
<text text-anchor="middle" x="264.57" y="-989.89" font-family="Times New Roman,serif" font-size="16.00" fill="#575757"> &#45;1&#45;&#45;&#45;&#45;/0000</text>
</g>
<!-- T3_CODICE2 -->
<g id="node15" class="node">
<title>T3_CODICE2</title>
<ellipse fill="none" stroke="black" stroke-width="2" cx="347.57" cy="-840.12" rx="76.24" ry="76.24"/>
<text text-anchor="middle" x="347.57" y="-836.32" font-family="Times New Roman,serif" font-size="16.00">T3_CODICE2</text>
</g>
<!-- T3_CODICE1&#45;&gt;T3_CODICE2 -->
<g id="edge20" class="edge">
<title>T3_CODICE1&#45;&gt;T3_CODICE2</title>
<path fill="none" stroke="#575757" d="M306.73,-1022.46C308.39,-1015.78 310.03,-1009.12 311.57,-1002.69 317.87,-976.43 324.4,-947.68 330.13,-921.8"/>
<polygon fill="#575757" stroke="#575757" points="331.8,-922.37 331.17,-917.11 328.38,-921.62 331.8,-922.37"/>
<text text-anchor="middle" x="358.07" y="-989.89" font-family="Times New Roman,serif" font-size="16.00" fill="#575757"> &#45;0101&#45;/0000</text>
</g>
<!-- T3_CODICE2_ERRORE -->
<g id="node16" class="node">
<title>T3_CODICE2_ERRORE</title>
<ellipse fill="none" stroke="black" stroke-width="2" cx="132.57" cy="-532.97" rx="126.64" ry="126.64"/>
<text text-anchor="middle" x="132.57" y="-529.17" font-family="Times New Roman,serif" font-size="16.00">T3_CODICE2_ERRORE</text>
</g>
<!-- T3_CODICE1_ERRORE&#45;&gt;T3_CODICE2_ERRORE -->
<g id="edge21" class="edge">
<title>T3_CODICE1_ERRORE&#45;&gt;T3_CODICE2_ERRORE</title>
<path fill="none" stroke="#575757" d="M129.06,-712.8C129.36,-697.46 129.67,-681.75 129.97,-666.32"/>
<polygon fill="#575757" stroke="#575757" points="131.71,-666.74 130.06,-661.71 128.21,-666.67 131.71,-666.74"/>
<text text-anchor="middle" x="166.07" y="-682.74" font-family="Times New Roman,serif" font-size="16.00" fill="#575757"> &#45;&#45;&#45;&#45;&#45;&#45;/0000</text>
</g>
<!-- T3_CODICE2&#45;&gt;T3_CODICE2_ERRORE -->
<g id="edge22" class="edge">
<title>T3_CODICE2&#45;&gt;T3_CODICE2_ERRORE</title>
<path fill="none" stroke="#575757" d="M305.15,-775.61C291.67,-755.65 276.61,-733.6 262.57,-713.54 246.09,-690 228.15,-664.9 211.02,-641.17"/>
<polygon fill="#575757" stroke="#575757" points="212.61,-640.39 208.27,-637.36 209.78,-642.43 212.61,-640.39"/>
<text text-anchor="middle" x="286.57" y="-682.74" font-family="Times New Roman,serif" font-size="16.00" fill="#575757"> &#45;1&#45;&#45;&#45;&#45;/0000</text>
</g>
<!-- T3_CODICE3 -->
<g id="node17" class="node">
<title>T3_CODICE3</title>
<ellipse fill="none" stroke="black" stroke-width="2" cx="353.57" cy="-532.97" rx="76.24" ry="76.24"/>
<text text-anchor="middle" x="353.57" y="-529.17" font-family="Times New Roman,serif" font-size="16.00">T3_CODICE3</text>
</g>
<!-- T3_CODICE2&#45;&gt;T3_CODICE3 -->
<g id="edge23" class="edge">
<title>T3_CODICE2&#45;&gt;T3_CODICE3</title>
<path fill="none" stroke="#575757" d="M349.07,-762.9C349.95,-718.31 351.05,-661.99 351.95,-616.37"/>
<polygon fill="#575757" stroke="#575757" points="353.7,-616.55 352.05,-611.52 350.2,-616.48 353.7,-616.55"/>
<text text-anchor="middle" x="393.07" y="-682.74" font-family="Times New Roman,serif" font-size="16.00" fill="#575757"> &#45;0101&#45;/0000</text>
</g>
<!-- BLOCCO -->
<g id="node18" class="node">
<title>BLOCCO</title>
<ellipse fill="none" stroke="black" stroke-width="2" cx="203.57" cy="-285.22" rx="56.64" ry="56.64"/>
<text text-anchor="middle" x="203.57" y="-281.42" font-family="Times New Roman,serif" font-size="16.00">BLOCCO</text>
</g>
<!-- T3_CODICE2_ERRORE&#45;&gt;BLOCCO -->
<g id="edge24" class="edge">
<title>T3_CODICE2_ERRORE&#45;&gt;BLOCCO</title>
<path fill="none" stroke="#575757" d="M146.6,-406.52C149.35,-394.17 152.64,-381.94 156.57,-370.4 160.12,-359.97 164.96,-349.34 170.18,-339.31"/>
<polygon fill="#575757" stroke="#575757" points="171.59,-340.37 172.4,-335.13 168.5,-338.72 171.59,-340.37"/>
<text text-anchor="middle" x="193.07" y="-375.6" font-family="Times New Roman,serif" font-size="16.00" fill="#575757"> &#45;&#45;&#45;&#45;&#45;&#45;/0010</text>
</g>
<!-- T3_CODICE3&#45;&gt;RICHIESTA -->
<g id="edge26" class="edge">
<title>T3_CODICE3&#45;&gt;RICHIESTA</title>
<path fill="none" stroke="#575757" d="M340.27,-457.18C339.01,-427.73 343,-395.11 360.57,-370.4 392.09,-326.08 450.8,-305.08 498.46,-295.14"/>
<polygon fill="#575757" stroke="#575757" points="498.77,-296.87 503.33,-294.17 498.08,-293.44 498.77,-296.87"/>
<text text-anchor="middle" x="403.07" y="-375.6" font-family="Times New Roman,serif" font-size="16.00" fill="#575757"> &#45;0000&#45;/0001</text>
</g>
<!-- T3_CODICE3&#45;&gt;BLOCCO -->
<g id="edge25" class="edge">
<title>T3_CODICE3&#45;&gt;BLOCCO</title>
<path fill="none" stroke="#575757" d="M310.84,-469.04C294.38,-444.19 275.67,-415.22 259.57,-388.4 250.63,-373.49 241.37,-357.08 233.03,-341.85"/>
<polygon fill="#575757" stroke="#575757" points="234.66,-341.18 230.73,-337.63 231.59,-342.85 234.66,-341.18"/>
<text text-anchor="middle" x="297.57" y="-375.6" font-family="Times New Roman,serif" font-size="16.00" fill="#575757"> &#45;1&#45;&#45;&#45;&#45;/0010</text>
</g>
<!-- BLOCCO&#45;&gt;BLOCCO -->
<g id="edge27" class="edge">
<title>BLOCCO&#45;&gt;BLOCCO</title>
<path fill="none" stroke="#575757" d="M258.53,-302.26C269.94,-300.47 278.14,-294.79 278.14,-285.22 278.14,-277.45 272.72,-272.25 264.57,-269.61"/>
<polygon fill="#575757" stroke="#575757" points="265.27,-267.97 260,-268.53 264.47,-271.38 265.27,-267.97"/>
<text text-anchor="middle" x="314.64" y="-281.42" font-family="Times New Roman,serif" font-size="16.00" fill="#575757"> &#45;&#45;&#45;&#45;&#45;&#45;/0010</text>
</g>
<!-- EROGAZIONE&#45;&gt;INSERIMENTO -->
<g id="edge30" class="edge">
<title>EROGAZIONE&#45;&gt;INSERIMENTO</title>
<path fill="none" stroke="#575757" d="M726.17,-146.92C751.47,-184.58 776.57,-234.49 776.57,-284.22 776.57,-2740.1 776.57,-2740.1 776.57,-2740.1 776.57,-2790.32 753.68,-2841.23 729.38,-2881.13"/>
<polygon fill="#575757" stroke="#575757" points="728.03,-2879.98 726.89,-2885.15 731.01,-2881.82 728.03,-2879.98"/>
<text text-anchor="middle" x="813.07" y="-1503.77" font-family="Times New Roman,serif" font-size="16.00" fill="#575757"> &#45;&#45;&#45;&#45;&#45;&#45;/0000</text>
</g>
</g>
</svg>
