<?xml version="1.0" encoding="utf-8" standalone="no"?>
<!DOCTYPE svg PUBLIC "-//W3C//DTD SVG 1.1//EN"
  "http://www.w3.org/Graphics/SVG/1.1/DTD/svg11.dtd">
<svg xmlns:xlink="http://www.w3.org/1999/xlink" width="590.4pt" height="302.4pt" viewBox="0 0 590.4 302.4" xmlns="http://www.w3.org/2000/svg" version="1.1">
 <metadata>
  <rdf:RDF xmlns:dc="http://purl.org/dc/elements/1.1/" xmlns:cc="http://creativecommons.org/ns#" xmlns:rdf="http://www.w3.org/1999/02/22-rdf-syntax-ns#">
   <cc:Work>
    <dc:type rdf:resource="http://purl.org/dc/dcmitype/StillImage"/>
    <dc:date>2022-12-12T21:06:40.166864</dc:date>
    <dc:format>image/svg+xml</dc:format>
    <dc:creator>
     <cc:Agent>
      <dc:title>Matplotlib v3.5.3, https://matplotlib.org/</dc:title>
     </cc:Agent>
    </dc:creator>
   </cc:Work>
  </rdf:RDF>
 </metadata>
 <defs>
  <style type="text/css">*{stroke-linejoin: round; stroke-linecap: butt}</style>
 </defs>
 <g id="figure_1">
  <g id="patch_1">
   <path d="M 0 302.4 
L 590.4 302.4 
L 590.4 0 
L 0 0 
z
" style="fill: #ffffff"/>
  </g>
  <g id="axes_1">
   <g id="patch_2">
    <path d="M 200.466981 40.678144 
Q 227.195105 71.860956 253.195623 102.194893 
" clip-path="url(#pd6e80d1110)" style="fill: none; stroke: #000000; stroke-linecap: round"/>
    <path d="M 252.110971 97.856284 
L 253.195623 102.194893 
L 249.073944 100.45945 
L 252.110971 97.856284 
z
" clip-path="url(#pd6e80d1110)" style="stroke: #000000; stroke-linecap: round"/>
   </g>
   <g id="patch_3">
    <path d="M 125.188194 43.372973 
Q 125.188194 71.862802 125.188194 99.234597 
" clip-path="url(#pd6e80d1110)" style="fill: none; stroke: #000000; stroke-linecap: round"/>
    <path d="M 127.188194 95.234597 
L 125.188194 99.234597 
L 123.188194 95.234597 
L 127.188194 95.234597 
z
" clip-path="url(#pd6e80d1110)" style="stroke: #000000; stroke-linecap: round"/>
   </g>
   <g id="patch_4">
    <path d="M 329.202361 43.372973 
Q 329.202361 71.862802 329.202361 99.234597 
" clip-path="url(#pd6e80d1110)" style="fill: none; stroke: #000000; stroke-linecap: round"/>
    <path d="M 331.202361 95.234597 
L 329.202361 99.234597 
L 327.202361 95.234597 
L 331.202361 95.234597 
z
" clip-path="url(#pd6e80d1110)" style="stroke: #000000; stroke-linecap: round"/>
   </g>
   <g id="patch_5">
    <path d="M 465.211806 43.372973 
Q 465.211806 71.862802 465.211806 99.234597 
" clip-path="url(#pd6e80d1110)" style="fill: none; stroke: #000000; stroke-linecap: round"/>
    <path d="M 467.211806 95.234597 
L 465.211806 99.234597 
L 463.211806 95.234597 
L 467.211806 95.234597 
z
" clip-path="url(#pd6e80d1110)" style="stroke: #000000; stroke-linecap: round"/>
   </g>
   <g id="patch_6">
    <path d="M 261.197639 43.372973 
Q 261.197639 71.862802 261.197639 99.234597 
" clip-path="url(#pd6e80d1110)" style="fill: none; stroke: #000000; stroke-linecap: round"/>
    <path d="M 263.197639 95.234597 
L 261.197639 99.234597 
L 259.197639 95.234597 
L 263.197639 95.234597 
z
" clip-path="url(#pd6e80d1110)" style="stroke: #000000; stroke-linecap: round"/>
   </g>
   <g id="patch_7">
    <path d="M 64.457536 40.678144 
Q 91.18566 71.860956 117.186178 102.194893 
" clip-path="url(#pd6e80d1110)" style="fill: none; stroke: #000000; stroke-linecap: round"/>
    <path d="M 116.101526 97.856284 
L 117.186178 102.194893 
L 113.064499 100.45945 
L 116.101526 97.856284 
z
" clip-path="url(#pd6e80d1110)" style="stroke: #000000; stroke-linecap: round"/>
   </g>
   <g id="patch_8">
    <path d="M 389.933019 40.678144 
Q 363.204895 71.860956 337.204377 102.194893 
" clip-path="url(#pd6e80d1110)" style="fill: none; stroke: #000000; stroke-linecap: round"/>
    <path d="M 341.326056 100.45945 
L 337.204377 102.194893 
L 338.289029 97.856284 
L 341.326056 100.45945 
z
" clip-path="url(#pd6e80d1110)" style="stroke: #000000; stroke-linecap: round"/>
   </g>
   <g id="patch_9">
    <path d="M 525.942464 40.678144 
Q 499.21434 71.860956 473.213822 102.194893 
" clip-path="url(#pd6e80d1110)" style="fill: none; stroke: #000000; stroke-linecap: round"/>
    <path d="M 477.335501 100.45945 
L 473.213822 102.194893 
L 474.298474 97.856284 
L 477.335501 100.45945 
z
" clip-path="url(#pd6e80d1110)" style="stroke: #000000; stroke-linecap: round"/>
   </g>
   <g id="patch_10">
    <path d="M 295.2 202.050659 
Q 295.2 230.540488 295.2 257.912283 
" clip-path="url(#pd6e80d1110)" style="fill: none; stroke: #000000; stroke-linecap: round"/>
    <path d="M 297.2 253.912283 
L 295.2 257.912283 
L 293.2 253.912283 
L 297.2 253.912283 
z
" clip-path="url(#pd6e80d1110)" style="stroke: #000000; stroke-linecap: round"/>
   </g>
   <g id="patch_11">
    <path d="M 265.602547 121.808697 
Q 278.200071 151.202921 290.35718 179.569509 
" clip-path="url(#pd6e80d1110)" style="fill: none; stroke: #000000; stroke-linecap: round"/>
    <path d="M 290.619793 175.10509 
L 290.35718 179.569509 
L 286.943213 176.680768 
L 290.619793 175.10509 
z
" clip-path="url(#pd6e80d1110)" style="stroke: #000000; stroke-linecap: round"/>
   </g>
   <g id="patch_12">
    <path d="M 135.318444 116.258029 
Q 210.193395 151.199672 284.055202 185.668516 
" clip-path="url(#pd6e80d1110)" style="fill: none; stroke: #000000; stroke-linecap: round"/>
    <path d="M 281.27624 182.164608 
L 284.055202 185.668516 
L 279.584699 185.78934 
L 281.27624 182.164608 
z
" clip-path="url(#pd6e80d1110)" style="stroke: #000000; stroke-linecap: round"/>
   </g>
   <g id="patch_13">
    <path d="M 324.797453 121.808697 
Q 312.199929 151.202921 300.04282 179.569509 
" clip-path="url(#pd6e80d1110)" style="fill: none; stroke: #000000; stroke-linecap: round"/>
    <path d="M 303.456787 176.680768 
L 300.04282 179.569509 
L 299.780207 175.10509 
L 303.456787 176.680768 
z
" clip-path="url(#pd6e80d1110)" style="stroke: #000000; stroke-linecap: round"/>
   </g>
   <g id="patch_14">
    <path d="M 455.081556 116.258029 
Q 380.206605 151.199672 306.344798 185.668516 
" clip-path="url(#pd6e80d1110)" style="fill: none; stroke: #000000; stroke-linecap: round"/>
    <path d="M 310.815301 185.78934 
L 306.344798 185.668516 
L 309.12376 182.164608 
L 310.815301 185.78934 
z
" clip-path="url(#pd6e80d1110)" style="stroke: #000000; stroke-linecap: round"/>
   </g>
   <g id="text_1">
    <g id="patch_15">
     <path d="M 216.947178 71.950471 
L 225.539657 81.975031 
Q 227.492032 84.252801 229.769801 82.300427 
L 237.117982 76.001987 
Q 239.395751 74.049613 237.443377 71.771843 
L 228.850897 61.747283 
Q 226.898523 59.469513 224.620754 61.421887 
L 217.272573 67.720327 
Q 214.994803 69.672702 216.947178 71.950471 
z
" clip-path="url(#pd6e80d1110)" style="fill: #ffffff; stroke: #ffffff; stroke-linejoin: miter"/>
    </g>
    <g clip-path="url(#pd6e80d1110)">
     <!-- A3 -->
     <g transform="translate(220.803964 68.644655)rotate(-310.601295)scale(0.1 -0.1)">
      <defs>
       <path id="DejaVuSans-41" d="M 2188 4044 
L 1331 1722 
L 3047 1722 
L 2188 4044 
z
M 1831 4666 
L 2547 4666 
L 4325 0 
L 3669 0 
L 3244 1197 
L 1141 1197 
L 716 0 
L 50 0 
L 1831 4666 
z
" transform="scale(0.015625)"/>
       <path id="DejaVuSans-33" d="M 2597 2516 
Q 3050 2419 3304 2112 
Q 3559 1806 3559 1356 
Q 3559 666 3084 287 
Q 2609 -91 1734 -91 
Q 1441 -91 1130 -33 
Q 819 25 488 141 
L 488 750 
Q 750 597 1062 519 
Q 1375 441 1716 441 
Q 2309 441 2620 675 
Q 2931 909 2931 1356 
Q 2931 1769 2642 2001 
Q 2353 2234 1838 2234 
L 1294 2234 
L 1294 2753 
L 1863 2753 
Q 2328 2753 2575 2939 
Q 2822 3125 2822 3475 
Q 2822 3834 2567 4026 
Q 2313 4219 1838 4219 
Q 1578 4219 1281 4162 
Q 984 4106 628 3988 
L 628 4550 
Q 988 4650 1302 4700 
Q 1616 4750 1894 4750 
Q 2613 4750 3031 4423 
Q 3450 4097 3450 3541 
Q 3450 3153 3228 2886 
Q 3006 2619 2597 2516 
z
" transform="scale(0.015625)"/>
      </defs>
      <use xlink:href="#DejaVuSans-41"/>
      <use xlink:href="#DejaVuSans-33" x="68.408203"/>
     </g>
    </g>
   </g>
   <g id="text_2">
    <g id="patch_16">
     <path d="M 117.349131 65.259595 
L 117.349131 78.46272 
Q 117.349131 81.46272 120.349131 81.46272 
L 130.027256 81.46272 
Q 133.027256 81.46272 133.027256 78.46272 
L 133.027256 65.259595 
Q 133.027256 62.259595 130.027256 62.259595 
L 120.349131 62.259595 
Q 117.349131 62.259595 117.349131 65.259595 
z
" clip-path="url(#pd6e80d1110)" style="fill: #ffffff; stroke: #ffffff; stroke-linejoin: miter"/>
    </g>
    <g clip-path="url(#pd6e80d1110)">
     <!-- A2 -->
     <g transform="translate(122.428819 65.259595)rotate(-270)scale(0.1 -0.1)">
      <defs>
       <path id="DejaVuSans-32" d="M 1228 531 
L 3431 531 
L 3431 0 
L 469 0 
L 469 531 
Q 828 903 1448 1529 
Q 2069 2156 2228 2338 
Q 2531 2678 2651 2914 
Q 2772 3150 2772 3378 
Q 2772 3750 2511 3984 
Q 2250 4219 1831 4219 
Q 1534 4219 1204 4116 
Q 875 4013 500 3803 
L 500 4441 
Q 881 4594 1212 4672 
Q 1544 4750 1819 4750 
Q 2544 4750 2975 4387 
Q 3406 4025 3406 3419 
Q 3406 3131 3298 2873 
Q 3191 2616 2906 2266 
Q 2828 2175 2409 1742 
Q 1991 1309 1228 531 
z
" transform="scale(0.015625)"/>
      </defs>
      <use xlink:href="#DejaVuSans-41"/>
      <use xlink:href="#DejaVuSans-32" x="68.408203"/>
     </g>
    </g>
   </g>
   <g id="text_3">
    <g id="patch_17">
     <path d="M 321.363299 65.259595 
L 321.363299 78.46272 
Q 321.363299 81.46272 324.363299 81.46272 
L 334.041424 81.46272 
Q 337.041424 81.46272 337.041424 78.46272 
L 337.041424 65.259595 
Q 337.041424 62.259595 334.041424 62.259595 
L 324.363299 62.259595 
Q 321.363299 62.259595 321.363299 65.259595 
z
" clip-path="url(#pd6e80d1110)" style="fill: #ffffff; stroke: #ffffff; stroke-linejoin: miter"/>
    </g>
    <g clip-path="url(#pd6e80d1110)">
     <!-- A1 -->
     <g transform="translate(326.442986 65.259595)rotate(-270)scale(0.1 -0.1)">
      <defs>
       <path id="DejaVuSans-31" d="M 794 531 
L 1825 531 
L 1825 4091 
L 703 3866 
L 703 4441 
L 1819 4666 
L 2450 4666 
L 2450 531 
L 3481 531 
L 3481 0 
L 794 0 
L 794 531 
z
" transform="scale(0.015625)"/>
      </defs>
      <use xlink:href="#DejaVuSans-41"/>
      <use xlink:href="#DejaVuSans-31" x="68.408203"/>
     </g>
    </g>
   </g>
   <g id="text_4">
    <g id="patch_18">
     <path d="M 457.372744 65.259595 
L 457.372744 78.46272 
Q 457.372744 81.46272 460.372744 81.46272 
L 470.050869 81.46272 
Q 473.050869 81.46272 473.050869 78.46272 
L 473.050869 65.259595 
Q 473.050869 62.259595 470.050869 62.259595 
L 460.372744 62.259595 
Q 457.372744 62.259595 457.372744 65.259595 
z
" clip-path="url(#pd6e80d1110)" style="fill: #ffffff; stroke: #ffffff; stroke-linejoin: miter"/>
    </g>
    <g clip-path="url(#pd6e80d1110)">
     <!-- A0 -->
     <g transform="translate(462.452431 65.259595)rotate(-270)scale(0.1 -0.1)">
      <defs>
       <path id="DejaVuSans-30" d="M 2034 4250 
Q 1547 4250 1301 3770 
Q 1056 3291 1056 2328 
Q 1056 1369 1301 889 
Q 1547 409 2034 409 
Q 2525 409 2770 889 
Q 3016 1369 3016 2328 
Q 3016 3291 2770 3770 
Q 2525 4250 2034 4250 
z
M 2034 4750 
Q 2819 4750 3233 4129 
Q 3647 3509 3647 2328 
Q 3647 1150 3233 529 
Q 2819 -91 2034 -91 
Q 1250 -91 836 529 
Q 422 1150 422 2328 
Q 422 3509 836 4129 
Q 1250 4750 2034 4750 
z
" transform="scale(0.015625)"/>
      </defs>
      <use xlink:href="#DejaVuSans-41"/>
      <use xlink:href="#DejaVuSans-30" x="68.408203"/>
     </g>
    </g>
   </g>
   <g id="text_5">
    <g id="patch_19">
     <path d="M 253.358576 65.249438 
L 253.358576 78.472876 
Q 253.358576 81.472876 256.358576 81.472876 
L 266.036701 81.472876 
Q 269.036701 81.472876 269.036701 78.472876 
L 269.036701 65.249438 
Q 269.036701 62.249438 266.036701 62.249438 
L 256.358576 62.249438 
Q 253.358576 62.249438 253.358576 65.249438 
z
" clip-path="url(#pd6e80d1110)" style="fill: #ffffff; stroke: #ffffff; stroke-linejoin: miter"/>
    </g>
    <g clip-path="url(#pd6e80d1110)">
     <!-- B3 -->
     <g transform="translate(258.438264 65.249438)rotate(-270)scale(0.1 -0.1)">
      <defs>
       <path id="DejaVuSans-42" d="M 1259 2228 
L 1259 519 
L 2272 519 
Q 2781 519 3026 730 
Q 3272 941 3272 1375 
Q 3272 1813 3026 2020 
Q 2781 2228 2272 2228 
L 1259 2228 
z
M 1259 4147 
L 1259 2741 
L 2194 2741 
Q 2656 2741 2882 2914 
Q 3109 3088 3109 3444 
Q 3109 3797 2882 3972 
Q 2656 4147 2194 4147 
L 1259 4147 
z
M 628 4666 
L 2241 4666 
Q 2963 4666 3353 4366 
Q 3744 4066 3744 3513 
Q 3744 3084 3544 2831 
Q 3344 2578 2956 2516 
Q 3422 2416 3680 2098 
Q 3938 1781 3938 1306 
Q 3938 681 3513 340 
Q 3088 0 2303 0 
L 628 0 
L 628 4666 
z
" transform="scale(0.015625)"/>
      </defs>
      <use xlink:href="#DejaVuSans-42"/>
      <use xlink:href="#DejaVuSans-33" x="68.603516"/>
     </g>
    </g>
   </g>
   <g id="text_6">
    <g id="patch_20">
     <path d="M 80.931123 71.94276 
L 89.536822 81.982742 
Q 91.489196 84.260512 93.766966 82.308138 
L 101.115146 76.009698 
Q 103.392916 74.057324 101.440542 71.779554 
L 92.834843 61.739572 
Q 90.882469 59.461802 88.604699 61.414176 
L 81.256519 67.712616 
Q 78.978749 69.66499 80.931123 71.94276 
z
" clip-path="url(#pd6e80d1110)" style="fill: #ffffff; stroke: #ffffff; stroke-linejoin: miter"/>
    </g>
    <g clip-path="url(#pd6e80d1110)">
     <!-- B2 -->
     <g transform="translate(84.787909 68.636943)rotate(-310.601295)scale(0.1 -0.1)">
      <use xlink:href="#DejaVuSans-42"/>
      <use xlink:href="#DejaVuSans-32" x="68.603516"/>
     </g>
    </g>
   </g>
   <g id="text_7">
    <g id="patch_21">
     <path d="M 364.853733 81.982742 
L 373.459432 71.94276 
Q 375.411806 69.66499 373.134036 67.712616 
L 365.785856 61.414176 
Q 363.508086 59.461802 361.555712 61.739572 
L 352.950013 71.779554 
Q 350.997639 74.057324 353.275409 76.009698 
L 360.623589 82.308138 
Q 362.901359 84.260512 364.853733 81.982742 
z
" clip-path="url(#pd6e80d1110)" style="fill: #ffffff; stroke: #ffffff; stroke-linejoin: miter"/>
    </g>
    <g clip-path="url(#pd6e80d1110)">
     <!-- B1 -->
     <g transform="translate(360.996947 78.676926)rotate(-49.398705)scale(0.1 -0.1)">
      <use xlink:href="#DejaVuSans-42"/>
      <use xlink:href="#DejaVuSans-31" x="68.603516"/>
     </g>
    </g>
   </g>
   <g id="text_8">
    <g id="patch_22">
     <path d="M 500.863178 81.982742 
L 509.468877 71.94276 
Q 511.421251 69.66499 509.143481 67.712616 
L 501.795301 61.414176 
Q 499.517531 59.461802 497.565157 61.739572 
L 488.959458 71.779554 
Q 487.007084 74.057324 489.284854 76.009698 
L 496.633034 82.308138 
Q 498.910804 84.260512 500.863178 81.982742 
z
" clip-path="url(#pd6e80d1110)" style="fill: #ffffff; stroke: #ffffff; stroke-linejoin: miter"/>
    </g>
    <g clip-path="url(#pd6e80d1110)">
     <!-- B0 -->
     <g transform="translate(497.006392 78.676926)rotate(-49.398706)scale(0.1 -0.1)">
      <use xlink:href="#DejaVuSans-42"/>
      <use xlink:href="#DejaVuSans-30" x="68.603516"/>
     </g>
    </g>
   </g>
   <g id="text_9">
    <g id="patch_23">
     <path d="M 287.360937 226.602905 
L 287.360937 234.47478 
Q 287.360937 237.47478 290.360937 237.47478 
L 300.039062 237.47478 
Q 303.039062 237.47478 303.039062 234.47478 
L 303.039062 226.602905 
Q 303.039062 223.602905 300.039062 223.602905 
L 290.360937 223.602905 
Q 287.360937 223.602905 287.360937 226.602905 
z
" clip-path="url(#pd6e80d1110)" style="fill: #ffffff; stroke: #ffffff; stroke-linejoin: miter"/>
    </g>
    <g clip-path="url(#pd6e80d1110)">
     <!-- O -->
     <g transform="translate(292.440625 226.602905)rotate(-270)scale(0.1 -0.1)">
      <defs>
       <path id="DejaVuSans-4f" d="M 2522 4238 
Q 1834 4238 1429 3725 
Q 1025 3213 1025 2328 
Q 1025 1447 1429 934 
Q 1834 422 2522 422 
Q 3209 422 3611 934 
Q 4013 1447 4013 2328 
Q 4013 3213 3611 3725 
Q 3209 4238 2522 4238 
z
M 2522 4750 
Q 3503 4750 4090 4092 
Q 4678 3434 4678 2328 
Q 4678 1225 4090 567 
Q 3503 -91 2522 -91 
Q 1538 -91 948 565 
Q 359 1222 359 2328 
Q 359 3434 948 4092 
Q 1538 4750 2522 4750 
z
" transform="scale(0.015625)"/>
      </defs>
      <use xlink:href="#DejaVuSans-4f"/>
     </g>
    </g>
   </g>
   <g id="text_10">
    <g id="patch_24">
     <path d="M 268.391255 148.215856 
L 273.595913 160.36006 
Q 274.777671 163.117495 277.535106 161.935737 
L 286.430707 158.123337 
Q 289.188142 156.941579 288.006384 154.184144 
L 282.801725 142.03994 
Q 281.619967 139.282505 278.862532 140.464263 
L 269.966932 144.276663 
Q 267.209497 145.458421 268.391255 148.215856 
z
" clip-path="url(#pd6e80d1110)" style="fill: #ffffff; stroke: #ffffff; stroke-linejoin: miter"/>
    </g>
    <g clip-path="url(#pd6e80d1110)">
     <!-- X3 -->
     <g transform="translate(273.060224 146.214869)rotate(-293.198591)scale(0.1 -0.1)">
      <defs>
       <path id="DejaVuSans-58" d="M 403 4666 
L 1081 4666 
L 2241 2931 
L 3406 4666 
L 4084 4666 
L 2584 2425 
L 4184 0 
L 3506 0 
L 2194 1984 
L 872 0 
L 191 0 
L 1856 2491 
L 403 4666 
z
" transform="scale(0.015625)"/>
      </defs>
      <use xlink:href="#DejaVuSans-58"/>
      <use xlink:href="#DejaVuSans-33" x="68.505859"/>
     </g>
    </g>
   </g>
   <g id="text_11">
    <g id="patch_25">
     <path d="M 200.892599 155.509939 
L 212.865544 161.097313 
Q 215.584093 162.36597 216.852749 159.64742 
L 220.945488 150.877267 
Q 222.214144 148.158717 219.495595 146.890061 
L 207.52265 141.302687 
Q 204.804101 140.03403 203.535444 142.75258 
L 199.442706 151.522733 
Q 198.174049 154.241283 200.892599 155.509939 
z
" clip-path="url(#pd6e80d1110)" style="fill: #ffffff; stroke: #ffffff; stroke-linejoin: miter"/>
    </g>
    <g clip-path="url(#pd6e80d1110)">
     <!-- X2 -->
     <g transform="translate(203.040725 150.906812)rotate(-334.983106)scale(0.1 -0.1)">
      <use xlink:href="#DejaVuSans-58"/>
      <use xlink:href="#DejaVuSans-32" x="68.505859"/>
     </g>
    </g>
   </g>
   <g id="text_12">
    <g id="patch_26">
     <path d="M 316.804087 160.36006 
L 322.008745 148.215856 
Q 323.190503 145.458421 320.433068 144.276663 
L 311.537468 140.464263 
Q 308.780033 139.282505 307.598275 142.03994 
L 302.393616 154.184144 
Q 301.211858 156.941579 303.969293 158.123337 
L 312.864894 161.935737 
Q 315.622329 163.117495 316.804087 160.36006 
z
" clip-path="url(#pd6e80d1110)" style="fill: #ffffff; stroke: #ffffff; stroke-linejoin: miter"/>
    </g>
    <g clip-path="url(#pd6e80d1110)">
     <!-- X1 -->
     <g transform="translate(312.135117 158.359073)rotate(-66.80141)scale(0.1 -0.1)">
      <use xlink:href="#DejaVuSans-58"/>
      <use xlink:href="#DejaVuSans-31" x="68.505859"/>
     </g>
    </g>
   </g>
   <g id="text_13">
    <g id="patch_27">
     <path d="M 377.534456 161.097313 
L 389.507401 155.509939 
Q 392.225951 154.241283 390.957294 151.522733 
L 386.864556 142.75258 
Q 385.595899 140.03403 382.87735 141.302687 
L 370.904405 146.890061 
Q 368.185856 148.158717 369.454512 150.877267 
L 373.547251 159.64742 
Q 374.815907 162.36597 377.534456 161.097313 
z
" clip-path="url(#pd6e80d1110)" style="fill: #ffffff; stroke: #ffffff; stroke-linejoin: miter"/>
    </g>
    <g clip-path="url(#pd6e80d1110)">
     <!-- X0 -->
     <g transform="translate(375.38633 156.494186)rotate(-25.016894)scale(0.1 -0.1)">
      <use xlink:href="#DejaVuSans-58"/>
      <use xlink:href="#DejaVuSans-30" x="68.505859"/>
     </g>
    </g>
   </g>
   <g id="PathCollection_1">
    <defs>
     <path id="C0_0_6fa58f7cd6" d="M 0 11.18034 
C 2.965061 11.18034 5.80908 10.002309 7.905694 7.905694 
C 10.002309 5.80908 11.18034 2.965061 11.18034 -0 
C 11.18034 -2.965061 10.002309 -5.80908 7.905694 -7.905694 
C 5.80908 -10.002309 2.965061 -11.18034 0 -11.18034 
C -2.965061 -11.18034 -5.80908 -10.002309 -7.905694 -7.905694 
C -10.002309 -5.80908 -11.18034 -2.965061 -11.18034 0 
C -11.18034 2.965061 -10.002309 5.80908 -7.905694 7.905694 
C -5.80908 10.002309 -2.965061 11.18034 0 11.18034 
z
"/>
    </defs>
    <g clip-path="url(#pd6e80d1110)">
     <use xlink:href="#C0_0_6fa58f7cd6" x="193.192916" y="32.191736" style="fill: #ff0000; stroke: #ff0000"/>
    </g>
    <g clip-path="url(#pd6e80d1110)">
     <use xlink:href="#C0_0_6fa58f7cd6" x="125.188194" y="32.191736" style="fill: #ff0000; stroke: #ff0000"/>
    </g>
    <g clip-path="url(#pd6e80d1110)">
     <use xlink:href="#C0_0_6fa58f7cd6" x="329.202361" y="32.191736" style="fill: #ff0000; stroke: #ff0000"/>
    </g>
    <g clip-path="url(#pd6e80d1110)">
     <use xlink:href="#C0_0_6fa58f7cd6" x="465.211806" y="32.191736" style="fill: #ff0000; stroke: #ff0000"/>
    </g>
    <g clip-path="url(#pd6e80d1110)">
     <use xlink:href="#C0_0_6fa58f7cd6" x="261.197639" y="32.191736" style="fill: #ff0000; stroke: #ff0000"/>
    </g>
    <g clip-path="url(#pd6e80d1110)">
     <use xlink:href="#C0_0_6fa58f7cd6" x="57.183471" y="32.191736" style="fill: #ff0000; stroke: #ff0000"/>
    </g>
    <g clip-path="url(#pd6e80d1110)">
     <use xlink:href="#C0_0_6fa58f7cd6" x="397.207084" y="32.191736" style="fill: #ff0000; stroke: #ff0000"/>
    </g>
    <g clip-path="url(#pd6e80d1110)">
     <use xlink:href="#C0_0_6fa58f7cd6" x="533.216529" y="32.191736" style="fill: #ff0000; stroke: #ff0000"/>
    </g>
    <g clip-path="url(#pd6e80d1110)">
     <use xlink:href="#C0_0_6fa58f7cd6" x="295.2" y="270.208264" style="fill: #0000ff; stroke: #0000ff"/>
    </g>
    <g clip-path="url(#pd6e80d1110)">
     <use xlink:href="#C0_0_6fa58f7cd6" x="295.2" y="190.869421" style="stroke: #000000"/>
    </g>
    <g clip-path="url(#pd6e80d1110)">
     <use xlink:href="#C0_0_6fa58f7cd6" x="261.197639" y="111.530579" style="stroke: #000000"/>
    </g>
    <g clip-path="url(#pd6e80d1110)">
     <use xlink:href="#C0_0_6fa58f7cd6" x="125.188194" y="111.530579" style="stroke: #000000"/>
    </g>
    <g clip-path="url(#pd6e80d1110)">
     <use xlink:href="#C0_0_6fa58f7cd6" x="329.202361" y="111.530579" style="stroke: #000000"/>
    </g>
    <g clip-path="url(#pd6e80d1110)">
     <use xlink:href="#C0_0_6fa58f7cd6" x="465.211806" y="111.530579" style="stroke: #000000"/>
    </g>
   </g>
  </g>
 </g>
 <defs>
  <clipPath id="pd6e80d1110">
   <rect x="7.2" y="7.2" width="576" height="288"/>
  </clipPath>
 </defs>
</svg>
